<svg xmlns="http://www.w3.org/2000/svg" width="220" height="220" viewBox="0 0 220 220">
  <defs>
    <linearGradient id="g" x1="0" y1="0" x2="1" y2="1">
      <stop offset="0" stop-color="#2CE0D3"/>
      <stop offset="0.55" stop-color="#FF3DA6"/>
      <stop offset="1" stop-color="#F7C948"/>
    </linearGradient>
  </defs>

  <rect width="220" height="220" fill="none"/>
  <g fill="none" stroke="url(#g)" stroke-width="2" stroke-opacity="0.55">
    <path d="M110 12c18 24 18 44 0 68-18-24-18-44 0-68z"/>
    <path d="M110 208c-18-24-18-44 0-68 18 24 18 44 0 68z"/>
    <path d="M12 110c24-18 44-18 68 0-24 18-44 18-68 0z"/>
    <path d="M208 110c-24 18-44 18-68 0 24-18 44-18 68 0z"/>
    <path d="M110 64c28 0 46 18 46 46s-18 46-46 46-46-18-46-46 18-46 46-46z"/>
    <path d="M110 78c20 0 32 12 32 32s-12 32-32 32-32-12-32-32 12-32 32-32z"/>
    <path d="M110 0v220M0 110h220" stroke-opacity="0.18"/>
    <path d="M20 20l180 180M200 20L20 200" stroke-opacity="0.18"/>
  </g>
</svg>
